<svg xmlns="http://www.w3.org/2000/svg" width="106.586" height="121.282" viewBox="0 0 106.586 121.282"><g transform="translate(-183.898 -5.423)"><g transform="translate(212.033 5.423)"><path d="M303.325,5.449a48.721,48.721,0,0,1,32.736,10.856q16.437,15.56,7.182,36.243a41.752,41.752,0,0,1-11.858,11.524q-9.617,5.892-18.706,12.526a18.541,18.541,0,0,0-3.173,4.008l-3.674,8.685q-3.89,5.488-10.522,3.841a8.782,8.782,0,0,1-6.848-7.182A27.554,27.554,0,0,1,297.98,63.4a195.775,195.775,0,0,1,18.038-12.025,30.233,30.233,0,0,0,6.848-6.18q5.187-10.782-3.507-18.873a22.67,22.67,0,0,0-17.7-3.34A16.47,16.47,0,0,0,293.8,28.5a73.911,73.911,0,0,0-7.015,11.357q-5.458,6.378-13.195,2.839-8.454-6.083-3.841-15.533,8.83-17.83,28.56-21.211A36.938,36.938,0,0,0,303.325,5.449Z" transform="translate(-268.126 -5.423)" fill="#080808" fill-rule="evenodd" opacity="0.992"/></g><g transform="translate(183.898 58.736)"><path d="M201.8,165.183a20.3,20.3,0,0,1,15.7,4.51q7.72,8.669,1.5,18.539-4.341,5.013-8.351,10.355a36.943,36.943,0,0,0-1.336,7.349,5.109,5.109,0,0,1-2.171,2.171,14.188,14.188,0,0,1-4.343,0,4.947,4.947,0,0,1-2.505-3.841,14.1,14.1,0,0,1,2.338-11.023l7.015-8.351q4.543-9.824-6.18-11.691a8.566,8.566,0,0,0-8.184,5.011,25.49,25.49,0,0,0-1.67,6.347q-2.054,4.926-7.182,3.173a5.075,5.075,0,0,1-2.505-3.173q-.586-10.941,8.852-16.535A28.346,28.346,0,0,1,201.8,165.183Z" transform="translate(-183.898 -165.024)" fill="#0a0a0a" fill-rule="evenodd" opacity="0.986"/></g><g transform="translate(226.522 102.32)"><path d="M316.511,295.5a116.841,116.841,0,0,1,17.7,2.839,4.764,4.764,0,0,1,1.67,3.674,159.579,159.579,0,0,1-3.006,16.2,4.377,4.377,0,0,1-3.34,1.67q-7.514-1.271-15.032-2.505a4.167,4.167,0,0,1-3.006-4.008q1.273-7.592,2.505-15.2A4.378,4.378,0,0,1,316.511,295.5Z" transform="translate(-311.5 -295.5)" fill="#080808" fill-rule="evenodd" opacity="0.987"/></g><g transform="translate(202.376 106.211)"><path d="M246.325,307.266a2.779,2.779,0,0,1,3.507,1.67,60.611,60.611,0,0,1,.668,8.017,2.373,2.373,0,0,1-1.837,1.169q-3.681.471-7.349.668a2.06,2.06,0,0,1-1.5-2.171,24.45,24.45,0,0,1-.5-7.516,2.262,2.262,0,0,1,1.67-1A20.55,20.55,0,0,0,246.325,307.266Z" transform="translate(-239.215 -307.149)" fill="#0b0b0b" fill-rule="evenodd" opacity="0.983"/></g></g></svg>