<svg xmlns="http://www.w3.org/2000/svg" width="135.762" height="89.994" viewBox="0 0 135.762 89.994"><path d="M109.189-166.571c-4.029,1.773-6.043,3.223-7.815,5.882-2.256,3.223-1.773,3.867,2.095,3.142,9.266-1.692,20.707,4.915,20.707,11.924,0,2.417.886,2.337,4.029-.242,9.749-8.218,3.465-20.868-10.716-21.754A17.376,17.376,0,0,0,109.189-166.571Z" transform="translate(-42.396 167.695)"/><path d="M95.411-152.323c-8.782,4.351-9.991,14.664-2.417,20.3,4.029,2.981,8.3,4.029,13.939,3.545,4.834-.483,4.915-.4,7.09,2.337,1.209,1.531,2.578,2.739,2.981,2.739s.483-1.934.242-4.27c-.4-3.626-.161-4.673,1.692-7.332,4.19-6.2,1.853-13.858-5.4-17.323C108.706-154.659,100.165-154.659,95.411-152.323ZM98.8-142.01c.725,1.047-.322,3.3-1.45,3.3-1.45,0-2.82-1.692-2.337-2.9C95.492-142.9,98.151-143.138,98.8-142.01Zm7.574,1.128c.322,1.611-2.014,2.739-3.223,1.531s-.081-3.545,1.531-3.223A2.265,2.265,0,0,1,106.369-140.882Zm7.735-1.128c.725,1.128-.322,3.3-1.531,3.3-1.37,0-3.062-2.175-2.417-3.223C110.8-142.9,113.54-142.976,114.1-142.01Z" transform="translate(-40.059 165.049)"/><path d="M53.276-140.449a15.074,15.074,0,0,0-8.057,8.3A15.021,15.021,0,0,0,59-111.363c7.251,0,12.005-2.9,14.906-9.266C79.7-133.2,66.006-146.331,53.276-140.449Z" transform="translate(-31.522 162.683)"/><path d="M152.691-141.112a15.694,15.694,0,0,0-9.991,14.986c0,4.915,1.773,8.3,6.123,11.763,2.5,2.095,3.948,2.578,8.138,2.82,5.157.322,8.621-.725,12.086-3.787,4.109-3.626,5.721-11.844,3.384-17.242C169.369-139.661,159.62-143.932,152.691-141.112Z" transform="translate(-50.688 162.701)"/><path d="M40.183-102.591c-3.626,1.531-7.735,5.559-9.91,9.588C28.742-90.1,28.581-88.492,28.5-77.7v12.086l28.039.242,27.958.161V-77.453c0-10.313-.322-12.891-1.531-15.55a20.987,20.987,0,0,0-9.83-9.588c-2.9-1.209-2.981-1.209-5.237,1.209-3.465,3.626-6.123,4.754-11.36,4.754-5,0-8.943-1.692-11.924-5.237C43.083-103.639,42.842-103.719,40.183-102.591Z" transform="translate(-28.5 155.201)"/><path d="M138.683-102.911a20.116,20.116,0,0,0-9.749,9.749C127.161-89.536,127-88.005,127-77.289v11.924h56.4v-11.2c0-15.792-2.095-20.787-10.394-25.38l-4.19-2.256-1.611,2.095c-2.5,3.142-7.332,5.318-11.924,5.318-5.157,0-7.9-1.047-11.36-4.431C141.261-103.8,140.939-103.878,138.683-102.911Z" transform="translate(-47.638 155.359)"/></svg>