<svg xmlns="http://www.w3.org/2000/svg" width="141.228" height="86.711" viewBox="0 0 141.228 86.711"><g transform="translate(-17.5 -58.5)"><g transform="translate(109.923 58.5)"><path d="M137.34,62.514a.71.71,0,0,0-.8.8q-5.244-6.437-1.606,1.606h-1.606a4.883,4.883,0,0,1,1.2-6.423Q135.946,60.542,137.34,62.514Z" transform="translate(-132.613 -58.5)" fill="#040404" fill-rule="evenodd" opacity="0.651"/></g><g transform="translate(61.659 58.5)"><path d="M77.317,62.514a.71.71,0,0,1-.8-.8q-.4-3.212-.8,0l-1.606.8H72.5q1.393-1.972,2.81-4.014a3.525,3.525,0,0,0,2.81.8A3.7,3.7,0,0,1,77.317,62.514Z" transform="translate(-72.5 -58.5)" fill="#040404" fill-rule="evenodd" opacity="0.453"/></g><g transform="translate(113.846 62.514)"><path d="M138.3,63.5a53.3,53.3,0,0,1,4.817,7.226h-1.606q-2.039-3.233-4.014-6.423A.71.71,0,0,1,138.3,63.5Z" transform="translate(-137.5 -63.5)" fill="#040404" fill-rule="evenodd" opacity="0.769"/></g><g transform="translate(55.236 62.514)"><path d="M70.923,63.5h1.606a58.877,58.877,0,0,1-6.423,9.635H64.5A58.463,58.463,0,0,1,70.923,63.5Z" transform="translate(-64.5 -63.5)" fill="#040404" fill-rule="evenodd" opacity="0.788"/></g><g transform="translate(60.053 61.712)"><path d="M75.317,62.5h.8a.71.71,0,0,0,.8.8,26.494,26.494,0,0,1-4.817,11.24H70.5A39.173,39.173,0,0,0,75.317,62.5Z" transform="translate(-70.5 -62.5)" fill="#040404" fill-rule="evenodd" opacity="0.957"/></g><g transform="translate(110.634 64.923)"><path d="M133.5,66.5h1.606a9.127,9.127,0,0,1,1.606,4.817h-.8A10.268,10.268,0,0,1,133.5,66.5Z" transform="translate(-133.5 -66.5)" fill="#040404" fill-rule="evenodd" opacity="0.659"/></g><g transform="translate(113.036 69.74)"><path d="M136.5,72.5h.8a14.908,14.908,0,0,1,2.409,4.014H138.1A4.8,4.8,0,0,1,136.5,72.5Z" transform="translate(-136.491 -72.5)" fill="#040404" fill-rule="evenodd" opacity="0.663"/></g><g transform="translate(117.86 69.74)"><path d="M142.5,72.5h1.606a34.729,34.729,0,0,1,5.62,12.846H148.12A68.9,68.9,0,0,0,142.5,72.5Z" transform="translate(-142.5 -72.5)" fill="#040404" fill-rule="evenodd" opacity="0.859"/></g><g transform="translate(52.827 72.149)"><path d="M63.909,75.5h1.606a57.2,57.2,0,0,0-2.409,7.226H61.5A19.233,19.233,0,0,1,63.909,75.5Z" transform="translate(-61.5 -75.5)" fill="#040404" fill-rule="evenodd" opacity="0.941"/></g><g transform="translate(108.154 71.6)"><path d="M134.5,76.971a.71.71,0,0,1-.8.8,5.669,5.669,0,0,1-2.007-1.606,3.962,3.962,0,0,0-.4,2.409,3.7,3.7,0,0,1-.8-3.212Q133.184,73.729,134.5,76.971Z" transform="translate(-130.41 -74.817)" fill="#040404" fill-rule="evenodd" opacity="0.678"/></g><g transform="translate(64.067 71.713)"><path d="M79.514,79.407h-.8Q78.83,76.1,76.3,77.8a.71.71,0,0,1-.8-.8,3.865,3.865,0,0,1,4.014-2.007A3.488,3.488,0,0,1,79.514,79.407Z" transform="translate(-75.5 -74.957)" fill="#040404" fill-rule="evenodd" opacity="0.678"/></g><g transform="translate(59.25 73.755)"><path d="M74.317,77.5a.71.71,0,0,0,.8.8,27.959,27.959,0,0,1-5.62,5.62,52.9,52.9,0,0,0,2.409-5.62.734.734,0,0,0,.4.8A5.668,5.668,0,0,1,74.317,77.5Z" transform="translate(-69.5 -77.5)" fill="#040404" fill-rule="evenodd" opacity="0.622"/></g><g transform="translate(111.437 73.755)"><path d="M135.3,77.5l2.409,1.606a.71.71,0,0,0,.8.8q.4,1.606.8,3.212A20.591,20.591,0,0,1,134.5,78.3.71.71,0,0,0,135.3,77.5Z" transform="translate(-134.5 -77.5)" fill="#040404" fill-rule="evenodd" opacity="0.467"/></g><g transform="translate(114.649 73.755)"><path d="M138.5,77.5h1.606a23.615,23.615,0,0,1,1.606,5.62h-1.606q-.4-1.606-.8-3.212a.71.71,0,0,1-.8-.8Z" transform="translate(-138.5 -77.5)" fill="#040404" fill-rule="evenodd" opacity="0.596"/></g><g transform="translate(107.926 72.149)"><path d="M130.426,75.5a3.7,3.7,0,0,0,.8,3.212,34.239,34.239,0,0,0,4.014,5.62.71.71,0,0,0-.8.8Q128.989,81.489,130.426,75.5Z" transform="translate(-130.126 -75.5)" fill="#040404" fill-rule="evenodd" opacity="0.976"/></g><g transform="translate(58.447 73.755)"><path d="M70.106,77.5h1.606v.8a52.9,52.9,0,0,1-2.409,5.62h-.8A15.235,15.235,0,0,1,70.106,77.5Z" transform="translate(-68.5 -77.5)" fill="#040404" fill-rule="evenodd" opacity="0.714"/></g><g transform="translate(61.659 76.163)"><path d="M78.12,80.5h.8a21.228,21.228,0,0,1-5.62,8.029.71.71,0,0,0-.8-.8A37.329,37.329,0,0,1,78.12,80.5Z" transform="translate(-72.5 -80.5)" fill="#040404" fill-rule="evenodd" opacity="0.649"/></g><g transform="translate(50.418 79.375)"><path d="M60.909,84.5h1.606A70.627,70.627,0,0,1,59.3,92.529l-.8-1.606A22.928,22.928,0,0,1,60.909,84.5Z" transform="translate(-58.5 -84.5)" fill="#040404" fill-rule="evenodd" opacity="0.651"/></g><g transform="translate(56.841 80.178)"><path d="M68.106,85.5h.8a11.031,11.031,0,0,0,0,5.62v1.606H67.3a.71.71,0,0,1-.8-.8A14.253,14.253,0,0,1,68.106,85.5Z" transform="translate(-66.5 -85.5)" fill="#040404" fill-rule="evenodd" opacity="0.75"/></g><g transform="translate(111.437 80.981)"><path d="M136.106,86.5a17.358,17.358,0,0,1,3.212,4.014,1.419,1.419,0,0,0-1.606,1.606,3.7,3.7,0,0,1-3.212-.8.71.71,0,0,0,.8-.8,1.949,1.949,0,0,0,1.606-.4A14.835,14.835,0,0,1,135.3,87.3.71.71,0,0,1,136.106,86.5Z" transform="translate(-134.5 -86.5)" fill="#040404" fill-rule="evenodd" opacity="0.729"/></g><g transform="translate(108.514 83.519)"><path d="M134.585,91.138a.71.71,0,0,1-.8.8,1.3,1.3,0,0,0-.8,1.606h-1.606Q129.473,87.267,134.585,91.138Z" transform="translate(-130.859 -89.661)" fill="#040404" fill-rule="evenodd" opacity="0.596"/></g><g transform="translate(116.255 79.375)"><path d="M140.5,84.5h1.606a14.254,14.254,0,0,1,1.606,6.423,2.3,2.3,0,0,1-2.409-.8A6.187,6.187,0,0,0,140.5,84.5Z" transform="translate(-140.5 -84.5)" fill="#040404" fill-rule="evenodd" opacity="0.561"/></g><g transform="translate(64.87 83.389)"><path d="M78.909,93.514H77.3q1.212-1.079,0-1.606a.71.71,0,0,0-.8-.8A5.544,5.544,0,0,1,78.909,89.5,3.219,3.219,0,0,1,78.909,93.514Z" transform="translate(-76.5 -89.5)" fill="#040404" fill-rule="evenodd" opacity="0.518"/></g><g transform="translate(114.649 84.995)"><path d="M140.106,91.5h.8a2.3,2.3,0,0,0,2.409.8,14.538,14.538,0,0,1,1.606,5.62h-1.606a5.5,5.5,0,0,0-.8-3.212q-2.157-.807-4.014-1.606A1.419,1.419,0,0,1,140.106,91.5Z" transform="translate(-138.5 -91.5)" fill="#040404" fill-rule="evenodd" opacity="0.825"/></g><g transform="translate(59.25 83.389)"><path d="M71.909,89.5a.71.71,0,0,1,.8.8,2.3,2.3,0,0,0,2.409.8.71.71,0,0,1,.8.8A28.235,28.235,0,0,1,69.5,93.514V91.909A5.252,5.252,0,0,1,71.909,89.5Z" transform="translate(-69.5 -89.5)" fill="#040404" fill-rule="evenodd" opacity="0.808"/></g><g transform="translate(123.481 82.586)"><path d="M149.5,88.5h1.606a13.112,13.112,0,0,0,1.606,3.212,14.7,14.7,0,0,1,4.014,2.409h-2.409a4.665,4.665,0,0,0-3.212-1.606A9.113,9.113,0,0,1,149.5,88.5Z" transform="translate(-149.5 -88.5)" fill="#040404" fill-rule="evenodd" opacity="0.247"/></g><g transform="translate(39.981 85.798)"><path d="M55.135,92.5a4.6,4.6,0,0,1-.8,2.409,33.189,33.189,0,0,0-8.029,5.62.71.71,0,0,0-.8-.8A32.173,32.173,0,0,1,55.135,92.5Z" transform="translate(-45.5 -92.5)" fill="#040404" fill-rule="evenodd" opacity="0.548"/></g><g transform="translate(109.029 87.404)"><path d="M131.5,94.5h1.606a9.223,9.223,0,0,1,3.212,3.212.71.71,0,0,0-.8.8A14.331,14.331,0,0,1,131.5,94.5Z" transform="translate(-131.5 -94.5)" fill="#040404" fill-rule="evenodd" opacity="0.988"/></g><g transform="translate(59.25 87.404)"><path d="M75.923,94.5h1.606a11.615,11.615,0,0,1-8.029,5.62v-.8A27.55,27.55,0,0,0,75.923,94.5Z" transform="translate(-69.5 -94.5)" fill="#040404" fill-rule="evenodd" opacity="0.965"/></g><g transform="translate(128.298 88.207)"><path d="M155.5,95.5h2.409a5.6,5.6,0,0,1,3.212,2.409.71.71,0,0,0-.8.8A15.2,15.2,0,0,1,155.5,95.5Z" transform="translate(-155.5 -95.5)" fill="#040404" fill-rule="evenodd" opacity="0.463"/></g><g transform="translate(41.586 85.798)"><path d="M55.529,92.5h.8l.8,1.606A33.665,33.665,0,0,1,48.3,108.558l-.8-.8a25.725,25.725,0,0,0,7.226-12.846A4.6,4.6,0,0,0,55.529,92.5Z" transform="translate(-47.5 -92.5)" fill="#040404" fill-rule="evenodd" opacity="0.686"/></g><g transform="translate(55.236 86.601)"><path d="M66.106,93.5a.71.71,0,0,0,.8.8l-.8,4.817h2.409v.8a2.3,2.3,0,0,1-2.409.8,1.3,1.3,0,0,0-1.606-.8A14.253,14.253,0,0,1,66.106,93.5Z" transform="translate(-64.5 -93.5)" fill="#040404" fill-rule="evenodd" opacity="0.573"/></g><g transform="translate(113.043 90.615)"><path d="M136.5,99.3a.71.71,0,0,1,.8-.8l4.817,1.606.8,1.606A11.788,11.788,0,0,1,136.5,99.3Z" transform="translate(-136.5 -98.5)" fill="#040404" fill-rule="evenodd" opacity="0.767"/></g><g transform="translate(125.086 86.601)"><path d="M151.5,93.5a4.665,4.665,0,0,1,3.212,1.606,3.658,3.658,0,0,0,0,4.014.709.709,0,0,1-.8.8A16.483,16.483,0,0,1,151.5,93.5Z" transform="translate(-151.5 -93.5)" fill="#040404" fill-rule="evenodd" opacity="0.953"/></g><g transform="translate(133.115 90.615)"><path d="M162.3,98.5a34.227,34.227,0,0,0,5.62,4.014v1.606h-.8v-.8q-1.352-1.514-1.606.8-1.994-2.36-4.014-4.817A.71.71,0,0,1,162.3,98.5Z" transform="translate(-161.5 -98.5)" fill="#040404" fill-rule="evenodd" opacity="0.653"/></g><g transform="translate(118.663 91.418)"><path d="M144.3,99.5h1.606a4.6,4.6,0,0,0,.8,2.409,2.6,2.6,0,0,0-1.606,3.212h-.8v-3.212l-.8-1.606A.709.709,0,0,0,144.3,99.5Z" transform="translate(-143.5 -99.5)" fill="#040404" fill-rule="evenodd"/></g><g transform="translate(127.495 92.221)"><path d="M155.3,100.5a88.642,88.642,0,0,0,6.423,8.832q-2.2.942-3.613-1.606A38.059,38.059,0,0,1,154.5,101.3.709.709,0,0,0,155.3,100.5Z" transform="translate(-154.5 -100.5)" fill="#040404" fill-rule="evenodd" opacity="0.479"/></g><g transform="translate(34.361 93.024)"><path d="M44.12,101.5a4.665,4.665,0,0,1-1.606,3.212q-.4-1.605-.8,0l-3.212.8v-1.606A26.1,26.1,0,0,1,44.12,101.5Z" transform="translate(-38.5 -101.5)" fill="#040404" fill-rule="evenodd" opacity="0.734"/></g><g transform="translate(53.63 94.63)"><path d="M63.3,103.5a1.419,1.419,0,0,1,1.606,1.606,5.552,5.552,0,0,1-.8,3.212H62.5A15.448,15.448,0,0,0,63.3,103.5Z" transform="translate(-62.5 -103.5)" fill="#040404" fill-rule="evenodd" opacity="0.734"/></g><g transform="translate(54.433 92.989)"><path d="M64.3,101.491a1.3,1.3,0,0,1,1.606.8q3.1,1.72,6.423,3.212H70.726a12.405,12.405,0,0,1-5.62-.8A1.419,1.419,0,0,0,63.5,103.1Z" transform="translate(-63.5 -101.456)" fill="#040404" fill-rule="evenodd" opacity="0.612"/></g><g transform="translate(120.199 93.827)"><path d="M147.089,102.5a15.432,15.432,0,0,0,.8,4.817h-1.606a1.3,1.3,0,0,0-.8-1.606A2.6,2.6,0,0,1,147.089,102.5Z" transform="translate(-145.413 -102.5)" fill="#040404" fill-rule="evenodd" opacity="0.848"/></g><g transform="translate(113.846 95.346)"><path d="M137.5,105.282a10.32,10.32,0,0,1,5.62-.8v1.606h-4.014A1.3,1.3,0,0,0,137.5,105.282Z" transform="translate(-137.5 -104.392)" fill="#040404" fill-rule="evenodd" opacity="0.808"/></g><g transform="translate(139.538 94.63)"><path d="M169.5,103.5a9.4,9.4,0,0,1,7.226,8.029H175.12a8.583,8.583,0,0,0-5.62-6.423Z" transform="translate(-169.5 -103.5)" fill="#040404" fill-rule="evenodd" opacity="0.984"/></g><g transform="translate(113.597 96.2)"><path d="M137.439,105.491a1.3,1.3,0,0,1,1.606.8q-.621,1.515,1.606,2.409v1.606Q136.262,109.221,137.439,105.491Z" transform="translate(-137.19 -105.456)" fill="#040404" fill-rule="evenodd" opacity="0.467"/></g><g transform="translate(137.13 94.834)"><path d="M168.106,104.353q-1.605.4,0,.8a14.338,14.338,0,0,0,4.014,4.014q-4.284.59-5.62-4.014Q166.754,102.839,168.106,104.353Z" transform="translate(-166.5 -103.755)" fill="#040404" fill-rule="evenodd" opacity="0.802"/></g><g transform="translate(33.558 93.024)"><path d="M43.923,101.5a.71.71,0,0,1,.8.8,12.3,12.3,0,0,1-4.817,6.825,1.616,1.616,0,0,1-2.409-.4,14.337,14.337,0,0,0,4.014-4.014h.8A4.665,4.665,0,0,0,43.923,101.5Z" transform="translate(-37.5 -101.5)" fill="#040404" fill-rule="evenodd" opacity="0.678"/></g><g transform="translate(59.25 97.038)"><path d="M71.909,106.5h1.606a4.615,4.615,0,0,1-4.014,4.014v-1.606A2.838,2.838,0,0,0,71.909,106.5Z" transform="translate(-69.5 -106.5)" fill="#040404" fill-rule="evenodd" opacity="0.71"/></g><g transform="translate(53.63 99.447)"><path d="M62.5,109.5h5.62v1.606a5.509,5.509,0,0,0-4.014.8H62.5Z" transform="translate(-62.5 -109.5)" fill="#040404" fill-rule="evenodd" opacity="0.625"/></g><g transform="translate(117.058 98.644)"><path d="M145.514,108.5h1.606v2.409H141.5V109.3A5.509,5.509,0,0,0,145.514,108.5Z" transform="translate(-141.5 -108.5)" fill="#040404" fill-rule="evenodd" opacity="0.509"/></g><g transform="translate(28.74 95.433)"><path d="M37.12,104.5v1.606a13.568,13.568,0,0,0-4.014,8.832H31.5A14.574,14.574,0,0,1,37.12,104.5Z" transform="translate(-31.5 -104.5)" fill="#040404" fill-rule="evenodd" opacity="0.937"/></g><g transform="translate(145.158 102.659)"><path d="M176.5,113.5h1.606a27.709,27.709,0,0,1,2.409,8.832h-1.606A35.906,35.906,0,0,0,176.5,113.5Z" transform="translate(-176.5 -113.5)" fill="#040404" fill-rule="evenodd" opacity="0.682"/></g><g transform="translate(52.813 101.856)"><path d="M62.3,112.5h1.606a27.434,27.434,0,0,0-.8,8.029L61.5,118.923A20.016,20.016,0,0,1,62.3,112.5Z" transform="translate(-61.483 -112.5)" fill="#040404" fill-rule="evenodd" opacity="0.627"/></g><g transform="translate(121.072 101.053)"><path d="M146.5,111.5h1.606a19.156,19.156,0,0,1,.8,7.226l-1.606,1.606A31.885,31.885,0,0,0,146.5,111.5Z" transform="translate(-146.5 -111.5)" fill="#040404" fill-rule="evenodd" opacity="0.551"/></g><g transform="translate(72.899 105.793)"><path d="M98.543,119.89H96.937a27.429,27.429,0,0,0-8.029-.8H86.5a7.983,7.983,0,0,1,5.62-1.606A6.7,6.7,0,0,1,98.543,119.89Z" transform="translate(-86.5 -117.404)" fill="#040404" fill-rule="evenodd" opacity="0.773"/></g><g transform="translate(93.774 105.791)"><path d="M112.5,118.284a5.509,5.509,0,0,1,4.014-.8l3.212,1.606H113.3A.709.709,0,0,0,112.5,118.284Z" transform="translate(-112.5 -117.402)" fill="#040404" fill-rule="evenodd" opacity="0.636"/></g><g transform="translate(25.529 105.87)"><path d="M30.712,117.5h1.606q-1.463,4.969-3.212,9.635H27.5Q29.123,122.216,30.712,117.5Z" transform="translate(-27.5 -117.5)" fill="#040404" fill-rule="evenodd" opacity="0.733"/></g><g transform="translate(97.788 105.838)"><path d="M117.5,117.492a9.242,9.242,0,0,1,8.029,3.212v1.606a15.2,15.2,0,0,1-4.817-3.212Z" transform="translate(-117.5 -117.46)" fill="#040404" fill-rule="evenodd" opacity="0.579"/></g><g transform="translate(69.687 107.476)"><path d="M85.712,119.5H88.12a15.2,15.2,0,0,1-4.817,3.212.71.71,0,0,0-.8-.8A5.6,5.6,0,0,1,85.712,119.5Z" transform="translate(-82.5 -119.5)" fill="#040404" fill-rule="evenodd" opacity="0.493"/></g><g transform="translate(77.716 108.279)"><path d="M98.12,120.5h1.606a5.279,5.279,0,0,1-5.62,4.014H92.5A30.42,30.42,0,0,0,98.12,120.5Z" transform="translate(-92.5 -120.5)" fill="#040404" fill-rule="evenodd" opacity="0.698"/></g><g transform="translate(52.827 108.279)"><path d="M61.5,120.5l1.606,1.606a23.7,23.7,0,0,0,2.409,4.014H63.909A9,9,0,0,1,61.5,120.5Z" transform="translate(-61.5 -120.5)" fill="#040404" fill-rule="evenodd" opacity="0.529"/></g><g transform="translate(91.481 106.673)"><path d="M111.937,118.5a.709.709,0,0,1,.8.8,2.652,2.652,0,0,1-1.606,1.2,38.06,38.06,0,0,0,6.423,3.613v1.606a29.075,29.075,0,0,1-7.627-4.014Q108.834,118.767,111.937,118.5Z" transform="translate(-109.644 -118.5)" fill="#040404" fill-rule="evenodd" opacity="0.808"/></g><g transform="translate(105.817 109.082)"><path d="M127.5,121.5l7.226,4.817a.709.709,0,0,1-.8.8,12.831,12.831,0,0,1-6.423-4.014Z" transform="translate(-127.5 -121.5)" fill="#040404" fill-rule="evenodd" opacity="0.918"/></g><g transform="translate(112.24 108.279)"><path d="M146.74,120.5a11.812,11.812,0,0,1-2.409,6.423,12.768,12.768,0,0,1-8.832,0,.709.709,0,0,0,.8-.8q6.249,2.3,8.832-4.014Z" transform="translate(-135.5 -120.5)" fill="#040404" fill-rule="evenodd" opacity="0.567"/></g><g transform="translate(64.067 109.885)"><path d="M81.12,122.5a.71.71,0,0,1,.8.8,12.83,12.83,0,0,1-6.423,4.014v-.8A21.441,21.441,0,0,1,81.12,122.5Z" transform="translate(-75.5 -122.5)" fill="#040404" fill-rule="evenodd" opacity="0.82"/></g><g transform="translate(99.394 112.293)"><path d="M119.5,125.5a46.988,46.988,0,0,1,8.029,6.423.709.709,0,0,0-.8.8,37.328,37.328,0,0,1-7.226-5.62Z" transform="translate(-119.5 -125.5)" fill="#040404" fill-rule="evenodd" opacity="0.698"/></g><g transform="translate(55.236 113.899)"><path d="M64.5,127.5h1.606a27.745,27.745,0,0,0,7.226,0v.8a13.937,13.937,0,0,1-8.029.4A1.813,1.813,0,0,1,64.5,127.5Z" transform="translate(-64.5 -127.5)" fill="#040404" fill-rule="evenodd" opacity="0.599"/></g><g transform="translate(147.567 111.49)"><path d="M179.5,124.5h1.606a22.93,22.93,0,0,1,2.409,6.423.709.709,0,0,0-.8.8A29.862,29.862,0,0,1,179.5,124.5Z" transform="translate(-179.5 -124.5)" fill="#040404" fill-rule="evenodd" opacity="0.941"/></g><g transform="translate(72.096 112.293)"><path d="M91.12,125.5h1.606a21.011,21.011,0,0,1-5.62,4.014H85.5A21.441,21.441,0,0,1,91.12,125.5Z" transform="translate(-85.5 -125.5)" fill="#040404" fill-rule="evenodd" opacity="0.523"/></g><g transform="translate(64.87 116.308)"><path d="M83.726,130.5h1.606a37.314,37.314,0,0,1-7.226,5.62H76.5A37.313,37.313,0,0,1,83.726,130.5Z" transform="translate(-76.5 -130.5)" fill="#040404" fill-rule="evenodd" opacity="0.545"/></g><g transform="translate(106.62 118.716)"><path d="M129.3,133.5a13.356,13.356,0,0,1,4.817,4.014.709.709,0,0,0-.8.8q-2.457-2.02-4.817-4.014A.709.709,0,0,1,129.3,133.5Z" transform="translate(-128.5 -133.5)" fill="#040404" fill-rule="evenodd" opacity="0.774"/></g><g transform="translate(22.317 115.505)"><path d="M26.712,129.5h1.606a60.926,60.926,0,0,1-3.212,8.832H23.5Z" transform="translate(-23.5 -129.5)" fill="#040404" fill-rule="evenodd" opacity="0.71"/></g><g transform="translate(61.659 121.928)"><path d="M75.712,137.5h1.606a8.915,8.915,0,0,1-4.817,4.014v-1.606Q74.06,138.719,75.712,137.5Z" transform="translate(-72.5 -137.5)" fill="#040404" fill-rule="evenodd" opacity="0.809"/></g><g transform="translate(150.779 117.913)"><path d="M184.3,132.5q2.808,6.417,5.62,12.846h-1.606A83.018,83.018,0,0,1,183.5,133.3.709.709,0,0,1,184.3,132.5Z" transform="translate(-183.5 -132.5)" fill="#040404" fill-rule="evenodd" opacity="0.707"/></g><g transform="translate(17.5 124.336)"><path d="M22.317,140.5h1.606l-4.817,9.635H17.5A40.564,40.564,0,0,1,22.317,140.5Z" transform="translate(-17.5 -140.5)" fill="#040404" fill-rule="evenodd" opacity="0.651"/></g><g transform="translate(111.437 122.731)"><path d="M135.3,138.5a65.5,65.5,0,0,0,8.832,4.014v1.606A22.526,22.526,0,0,1,134.5,139.3.709.709,0,0,1,135.3,138.5Z" transform="translate(-134.5 -138.5)" fill="#040404" fill-rule="evenodd" opacity="0.541"/></g><g transform="translate(52.024 124.336)"><path d="M70.135,140.5v1.606a34.785,34.785,0,0,1-8.029,2.409,1.3,1.3,0,0,0-1.606-.8A101.5,101.5,0,0,0,70.135,140.5Z" transform="translate(-60.5 -140.5)" fill="#040404" fill-rule="evenodd" opacity="0.469"/></g><g transform="translate(45.601 127.513)"><path d="M58.923,144.491a1.3,1.3,0,0,1,1.606.8A70.549,70.549,0,0,1,53.3,146.9a.71.71,0,0,0-.8-.8A10.1,10.1,0,0,1,58.923,144.491Z" transform="translate(-52.5 -144.456)" fill="#040404" fill-rule="evenodd" opacity="0.622"/></g><g transform="translate(121.072 126.745)"><path d="M146.5,143.5a25.971,25.971,0,0,1,9.635,2.409.709.709,0,0,0-.8.8q-4.379-.995-8.832-1.606Z" transform="translate(-146.5 -143.5)" fill="#040404" fill-rule="evenodd" opacity="0.465"/></g><g transform="translate(129.904 129.154)"><path d="M158.3,146.5a36.457,36.457,0,0,1,6.423,6.423.709.709,0,0,0-.8.8A36.457,36.457,0,0,0,157.5,147.3.709.709,0,0,1,158.3,146.5Z" transform="translate(-157.5 -146.5)" fill="#040404" fill-rule="evenodd" opacity="0.755"/></g><g transform="translate(39.178 129.154)"><path d="M50.923,146.5a.71.71,0,0,1,.8.8,27.952,27.952,0,0,0-5.62,5.62H44.5A36.465,36.465,0,0,1,50.923,146.5Z" transform="translate(-44.5 -146.5)" fill="#040404" fill-rule="evenodd" opacity="0.755"/></g><g transform="translate(155.596 130.759)"><path d="M189.5,148.5h1.606q3.052,2.91,0,5.62a.709.709,0,0,0-.8-.8A4.157,4.157,0,0,0,189.5,148.5Z" transform="translate(-189.5 -148.5)" fill="#040404" fill-rule="evenodd" opacity="0.702"/></g><g transform="translate(17.5 133.971)"><path d="M17.5,152.5h1.606a22.53,22.53,0,0,1,4.014,4.014.71.71,0,0,0-.8.8A7.89,7.89,0,0,1,17.5,152.5Z" transform="translate(-17.5 -152.5)" fill="#040404" fill-rule="evenodd" opacity="0.914"/></g><g transform="translate(136.327 135.577)"><path d="M166.3,154.5a81.089,81.089,0,0,1,4.817,7.627,15.107,15.107,0,0,0,4.817-1.2v1.606a6.394,6.394,0,0,1-5.62,1.2,72.859,72.859,0,0,1-4.817-8.43A.709.709,0,0,1,166.3,154.5Z" transform="translate(-165.5 -154.5)" fill="#040404" fill-rule="evenodd" opacity="0.508"/></g><g transform="translate(152.384 135.577)"><path d="M189.514,154.5a.709.709,0,0,1,.8.8,14.836,14.836,0,0,1-4.817,3.212v-1.606A15.194,15.194,0,0,1,189.514,154.5Z" transform="translate(-185.5 -154.5)" fill="#040404" fill-rule="evenodd" opacity="0.72"/></g><g transform="translate(22.317 137.985)"><path d="M23.5,158.3a.71.71,0,0,1,.8-.8,9.781,9.781,0,0,1,4.014,2.409.71.71,0,0,1-.8.8A9.427,9.427,0,0,1,23.5,158.3Z" transform="translate(-23.5 -157.5)" fill="#040404" fill-rule="evenodd" opacity="0.837"/></g><g transform="translate(26.332 140.394)"><path d="M29.3,160.5l6.423,3.212q.823-.437,1.606-.8h.8v2.409A13.79,13.79,0,0,1,28.5,161.3.71.71,0,0,0,29.3,160.5Z" transform="translate(-28.5 -160.5)" fill="#040404" fill-rule="evenodd" opacity="0.622"/></g><g transform="translate(35.163 135.577)"><path d="M43.514,154.5H45.12a50.372,50.372,0,0,1-4.817,7.226h-.8A29.052,29.052,0,0,1,43.514,154.5Z" transform="translate(-39.5 -154.5)" fill="#040404" fill-rule="evenodd" opacity="0.937"/></g><g transform="translate(146.764 137.985)"><path d="M184.12,157.5v1.606a21.443,21.443,0,0,1-5.62,4.014v-1.606A31.63,31.63,0,0,1,184.12,157.5Z" transform="translate(-178.5 -157.5)" fill="#040404" fill-rule="evenodd" opacity="0.847"/></g></g></svg>