<svg xmlns="http://www.w3.org/2000/svg" width="126.092" height="143.138" viewBox="0 0 126.092 143.138"><g transform="translate(-39.5 -36.495)"><g transform="translate(66.763 37.567)"><path d="M76,37.508q1.715,1.526,0,2.272H71.452a27.912,27.912,0,0,0-7.952-1.7A69.226,69.226,0,0,1,76,37.508Z" transform="translate(-63.5 -37.438)" fill-rule="evenodd"/></g><g transform="translate(58.811 36.495)"><path d="M76.947,37.637a69.226,69.226,0,0,0-12.5.568,27.913,27.913,0,0,1,7.952,1.7A47.421,47.421,0,0,0,62.18,41.045a1.838,1.838,0,0,0-2.272,1.136H58.772A1.838,1.838,0,0,0,56.5,41.045a10.462,10.462,0,0,1,6.816-3.976A28.12,28.12,0,0,1,76.947,37.637Z" transform="translate(-56.5 -36.495)" fill-rule="evenodd"/></g><g transform="translate(79.259 37.637)"><path d="M74.5,37.5a17.241,17.241,0,0,1,7.952,3.408q1.715,1.526,0,2.272l-4.544-1.136L74.5,39.772Q76.215,39.026,74.5,37.5Z" transform="translate(-74.5 -37.5)" fill-rule="evenodd"/></g><g transform="translate(57.675 39.909)"><path d="M74.811,39.5h2.272l3.408,2.272a3.254,3.254,0,0,0-3.408,1.136,69.225,69.225,0,0,0-12.5.568,3.755,3.755,0,0,0-2.272,1.7,6.506,6.506,0,0,0-3.408,1.136A3.254,3.254,0,0,0,55.5,45.18a7.431,7.431,0,0,1,3.408-3.408q.568,2.272,1.136,0a1.838,1.838,0,0,1,2.272-1.136q-1.641,1.471,0,2.272a24.512,24.512,0,0,1,13.632-1.7A2.563,2.563,0,0,1,74.811,39.5Z" transform="translate(-55.5 -39.5)" fill-rule="evenodd" opacity="0.007"/></g><g transform="translate(64.491 43.246)"><path d="M76.268,42.508a14.538,14.538,0,0,1,6.816,3.408H80.811a61.1,61.1,0,0,0-15.9-1.136H61.5a3.755,3.755,0,0,1,2.272-1.7A69.225,69.225,0,0,1,76.268,42.508Z" transform="translate(-61.5 -42.438)" fill-rule="evenodd" opacity="0.72"/></g><g transform="translate(51.996 41.045)"><path d="M57.316,40.5A29.12,29.12,0,0,1,50.5,47.316,10.241,10.241,0,0,1,57.316,40.5Z" transform="translate(-50.5 -40.5)" fill-rule="evenodd" opacity="0.6"/></g><g transform="translate(87.211 41.045)"><path d="M81.5,40.5a17.825,17.825,0,0,1,10.224,7.952H89.452a7.934,7.934,0,0,0-4.544-2.272,1.838,1.838,0,0,0-2.272-1.136A1,1,0,0,0,81.5,43.908V42.772Q83.215,42.026,81.5,40.5Z" transform="translate(-81.5 -40.5)" fill-rule="evenodd"/></g><g transform="translate(79.259 42.096)"><path d="M74.5,42.646a3.254,3.254,0,0,1,3.408-1.136l4.544,1.136v1.136a1,1,0,0,1,1.136,1.136,1.838,1.838,0,0,1,2.272,1.136,1,1,0,0,0-1.136,1.136,6.506,6.506,0,0,1-3.408-1.136A14.538,14.538,0,0,0,74.5,42.646Z" transform="translate(-74.5 -41.426)" fill-rule="evenodd" opacity="0.008"/></g><g transform="translate(83.803 46.724)"><path d="M78.5,45.5h2.272a6.506,6.506,0,0,0,3.408,1.136,7.612,7.612,0,0,1,2.84,5.68A78.249,78.249,0,0,1,78.5,45.5Z" transform="translate(-78.5 -45.5)" fill-rule="evenodd" opacity="0.451"/></g><g transform="translate(90.618 46.724)"><path d="M84.5,45.5a7.934,7.934,0,0,1,4.544,2.272A6.506,6.506,0,0,1,90.18,51.18,20.281,20.281,0,0,1,84.5,45.5Z" transform="translate(-84.5 -45.5)" fill-rule="evenodd" opacity="0.682"/></g><g transform="translate(49.718 40.995)"><path d="M57.588,40.506a1.838,1.838,0,0,1,2.272,1.136,7.431,7.431,0,0,0-3.408,3.408,3.414,3.414,0,0,0-2.272,2.272L48.5,54.138V50.73a3.1,3.1,0,0,1,2.272-3.408A29.12,29.12,0,0,0,57.588,40.506Z" transform="translate(-48.495 -40.456)" fill-rule="evenodd"/></g><g transform="translate(55.404 45.588)"><path d="M55.772,44.5a3.254,3.254,0,0,0,3.408,1.136A6.506,6.506,0,0,1,62.588,44.5H66l-9.088,4.544a1,1,0,0,0-1.136-1.136A1.838,1.838,0,0,0,53.5,46.772,3.414,3.414,0,0,1,55.772,44.5Z" transform="translate(-53.5 -44.5)" fill-rule="evenodd" opacity="0.702"/></g><g transform="translate(95.162 48.996)"><path d="M88.5,47.5h2.272a5.375,5.375,0,0,1,3.408,4.544q.155,3.745-2.272,1.136a3.414,3.414,0,0,1-2.272-2.272A6.506,6.506,0,0,0,88.5,47.5Z" transform="translate(-88.5 -47.5)" fill-rule="evenodd"/></g><g transform="translate(51.996 48.996)"><path d="M56.18,47.5a1,1,0,0,1,1.136,1.136q-2.858,3.476-5.68,6.816A1.252,1.252,0,0,1,50.5,54.316q2.312-2.872,4.544-5.68A1,1,0,0,1,56.18,47.5Z" transform="translate(-50.5 -47.5)" fill-rule="evenodd" opacity="0.278"/></g><g transform="translate(44.044 51.268)"><path d="M49.18,49.5v3.408a15.42,15.42,0,0,0-2.272,6.816,12.885,12.885,0,0,1-2.272,5.68A5.238,5.238,0,0,0,43.5,60.86V59.724A17.4,17.4,0,0,1,49.18,49.5Z" transform="translate(-43.5 -49.5)" fill-rule="evenodd"/></g><g transform="translate(47.452 47.86)"><path d="M54.452,46.5a1.838,1.838,0,0,0,1.136,2.272q-2.232,2.808-4.544,5.68a1.252,1.252,0,0,0,1.136,1.136A48.029,48.029,0,0,1,48.2,64.675a9.994,9.994,0,0,0-1.7-4.544,15.42,15.42,0,0,1,2.272-6.816Z" transform="translate(-46.5 -46.5)" fill-rule="evenodd" opacity="0.022"/></g><g transform="translate(98.57 53.54)"><path d="M93.772,51.5a13.846,13.846,0,0,1,3.408,5.68q-2.9-1.977-2.272,2.272A14.538,14.538,0,0,1,91.5,52.636Q93.927,55.245,93.772,51.5Z" transform="translate(-91.5 -51.5)" fill-rule="evenodd"/></g><g transform="translate(101.866 58.592)"><path d="M96.785,56.575a12.646,12.646,0,0,1,2.272,7.952,3.755,3.755,0,0,1-1.7-2.272,69.226,69.226,0,0,0-.568,12.5,5.238,5.238,0,0,1-1.136,4.544,115.922,115.922,0,0,0-1.136-20.447Q93.884,54.6,96.785,56.575Z" transform="translate(-94.401 -55.947)" fill-rule="evenodd" opacity="0.999"/></g><g transform="translate(41.648 62.628)"><path d="M43.787,59.5a5.238,5.238,0,0,1,1.136,4.544,3.254,3.254,0,0,1-1.136,3.408,48.677,48.677,0,0,0-1.136,14.768,1,1,0,0,1-1.136,1.136A79.45,79.45,0,0,1,43.787,59.5Z" transform="translate(-41.391 -59.5)" fill-rule="evenodd"/></g><g transform="translate(70.171 71.877)"><path d="M66.5,68.617q4.944-2.753,7.952,2.272a1.838,1.838,0,0,0-1.136,2.272A1,1,0,0,0,72.18,74.3a1.838,1.838,0,0,1-1.136-2.272,1.038,1.038,0,0,0,1.136-.568,3.826,3.826,0,0,0-3.408-1.7A1.838,1.838,0,0,0,66.5,68.617Z" transform="translate(-66.5 -67.642)" fill-rule="evenodd" opacity="0.671"/></g><g transform="translate(104.18 64.9)"><path d="M98.78,63.772v2.272a36.848,36.848,0,0,1-.568,9.088A2.563,2.563,0,0,0,96.508,74a69.226,69.226,0,0,1,.568-12.5A3.755,3.755,0,0,0,98.78,63.772Z" transform="translate(-96.438 -61.5)" fill-rule="evenodd" opacity="0.995"/></g><g transform="translate(70.171 73.988)"><path d="M68.772,69.5v2.272a1,1,0,0,1-1.136,1.136A1,1,0,0,0,66.5,71.772,3.414,3.414,0,0,1,68.772,69.5Z" transform="translate(-66.5 -69.5)" fill-rule="evenodd" opacity="0.004"/></g><g transform="translate(76.937 75.124)"><path d="M73.642,70.5a13.206,13.206,0,0,1,4.544,9.088,1,1,0,0,1-1.136,1.136,7.5,7.5,0,0,0-3.408-5.68,1,1,0,0,0-1.136-1.136V72.772A1.838,1.838,0,0,1,73.642,70.5Z" transform="translate(-72.456 -70.5)" fill-rule="evenodd" opacity="0.722"/></g><g transform="translate(42.775 70.58)"><path d="M43.652,66.5a141.9,141.9,0,0,0,1.136,19.311l-2.272-4.544A48.677,48.677,0,0,1,43.652,66.5Z" transform="translate(-42.383 -66.5)" fill-rule="evenodd" opacity="0.133"/></g><g transform="translate(63.306 77.395)"><path d="M67.322,72.5h1.136a6.506,6.506,0,0,1-1.136,3.408,40.52,40.52,0,0,0-4.544,7.952l-2.272-1.136a1.838,1.838,0,0,1,1.136-2.272A30.12,30.12,0,0,0,67.322,72.5Z" transform="translate(-60.456 -72.5)" fill-rule="evenodd" opacity="0.071"/></g><g transform="translate(70.171 76.26)"><path d="M68.772,71.5h2.272a1.838,1.838,0,0,0,1.136,2.272v1.136a2.758,2.758,0,0,0-2.272.568,4.988,4.988,0,0,1,1.136,3.976,3.755,3.755,0,0,1-1.7-2.272,2.563,2.563,0,0,1-1.7,1.136A1.838,1.838,0,0,0,66.5,76.044a6.506,6.506,0,0,0,1.136-3.408A1,1,0,0,0,68.772,71.5Z" transform="translate(-66.5 -71.5)" fill-rule="evenodd"/></g><g transform="translate(98.486 69.444)"><path d="M99.462,65.5a35.221,35.221,0,0,1-6.816,28.4,3.254,3.254,0,0,1-1.136-3.408A80.723,80.723,0,0,0,96.054,78a5.238,5.238,0,0,0,1.136-4.544,2.563,2.563,0,0,1,1.7,1.136A36.848,36.848,0,0,0,99.462,65.5Z" transform="translate(-91.426 -65.5)" fill-rule="evenodd"/></g><g transform="translate(64.491 72.802)"><path d="M67.18,68.506a1.838,1.838,0,0,1,2.272,1.136,3.414,3.414,0,0,0-2.272,2.272V73.05A30.119,30.119,0,0,1,61.5,81,26.115,26.115,0,0,1,67.18,68.506Z" transform="translate(-61.5 -68.456)" fill-rule="evenodd" opacity="0.839"/></g><g transform="translate(75.851 78.531)"><path d="M71.5,73.5h1.136a1,1,0,0,1,1.136,1.136,7.5,7.5,0,0,1,3.408,5.68,1,1,0,0,0,1.136-1.136,3.629,3.629,0,0,1,.568,4.544q-1.665-2.17-2.84,0A65.51,65.51,0,0,1,71.5,74.636Z" transform="translate(-71.5 -73.5)" fill-rule="evenodd" opacity="0.008"/></g><g transform="translate(39.5 61.492)"><path d="M44.044,58.5v1.136a79.45,79.45,0,0,0-2.272,23.855v2.272A58.093,58.093,0,0,1,39.5,76.107,51.385,51.385,0,0,1,44.044,58.5Z" transform="translate(-39.5 -58.5)" fill-rule="evenodd" opacity="0.702"/></g><g transform="translate(65.627 80.803)"><path d="M67.044,75.5a1.838,1.838,0,0,1,1.136,2.272,14.538,14.538,0,0,1-3.408,6.816A1.838,1.838,0,0,1,62.5,83.452,40.52,40.52,0,0,1,67.044,75.5Z" transform="translate(-62.5 -75.5)" fill-rule="evenodd"/></g><g transform="translate(73.579 79.618)"><path d="M71.772,74.506a65.51,65.51,0,0,0,4.544,9.088,3.414,3.414,0,0,1-2.272,2.272,14.538,14.538,0,0,1-3.408-6.816A4.988,4.988,0,0,0,69.5,75.074,2.758,2.758,0,0,1,71.772,74.506Z" transform="translate(-69.5 -74.457)" fill-rule="evenodd"/></g><g transform="translate(41.688 85.347)"><path d="M42.646,79.5l2.272,4.544a9.581,9.581,0,0,1-.568,4.544,3.755,3.755,0,0,0-1.7-2.272,3.254,3.254,0,0,1-1.136-3.408V80.636A1,1,0,0,0,42.646,79.5Z" transform="translate(-41.426 -79.5)" fill-rule="evenodd" opacity="0.98"/></g><g transform="translate(78.123 88.755)"><path d="M75.772,82.5a6.6,6.6,0,0,1,2.272,4.544q-2.9-1.977-2.272,2.272A6.6,6.6,0,0,1,73.5,84.772,3.414,3.414,0,0,0,75.772,82.5Z" transform="translate(-73.5 -82.5)" fill-rule="evenodd"/></g><g transform="translate(42.908 89.891)"><path d="M44.772,83.5q2.255,5.039,4.544,10.224-1.471-1.641-2.272,0a6.335,6.335,0,0,1,1.136,3.408,20.35,20.35,0,0,1-5.68-11.36,3.755,3.755,0,0,1,1.7,2.272A9.581,9.581,0,0,0,44.772,83.5Z" transform="translate(-42.5 -83.5)" fill-rule="evenodd"/></g><g transform="translate(62.215 87.619)"><path d="M60.636,81.5l2.272,1.136a1.838,1.838,0,0,0,2.272,1.136,19.927,19.927,0,0,1-3.408,6.816Q59.4,93.236,59.5,89.452a7.83,7.83,0,0,1,2.272-4.544q-.618-1.165-1.136-2.272Z" transform="translate(-59.496 -81.5)" fill-rule="evenodd" opacity="0.992"/></g><g transform="translate(58.811 88.755)"><path d="M61.044,82.5q.518,1.107,1.136,2.272a7.83,7.83,0,0,0-2.272,4.544q-.1,3.784,2.272,1.136a13.846,13.846,0,0,1-3.408,5.68,9.581,9.581,0,0,0-.568-4.544,3.755,3.755,0,0,1-1.7,2.272Q58.784,88.073,61.044,82.5Z" transform="translate(-56.5 -82.5)" fill-rule="evenodd"/></g><g transform="translate(80.283 92.671)"><path d="M77.785,86.575a14.538,14.538,0,0,1,3.408,6.816q-2.427-2.609-2.272,1.136a7.5,7.5,0,0,1-3.408-5.68Q74.884,84.6,77.785,86.575Z" transform="translate(-75.401 -85.947)" fill-rule="evenodd"/></g><g transform="translate(95.162 94.435)"><path d="M91.908,87.5a3.254,3.254,0,0,0,1.136,3.408,5.375,5.375,0,0,1-3.408,4.544A1.838,1.838,0,0,0,88.5,93.18,13.846,13.846,0,0,1,91.908,87.5Z" transform="translate(-88.5 -87.5)" fill-rule="evenodd"/></g><g transform="translate(83.792 99.044)"><path d="M80.773,92.628a6.6,6.6,0,0,1,2.272,4.544,5.4,5.4,0,0,1,2.272,3.408,7.856,7.856,0,0,1-4.544-1.136,6.8,6.8,0,0,1-2.272-5.68Q78.346,90.019,80.773,92.628Z" transform="translate(-78.491 -91.557)" fill-rule="evenodd"/></g><g transform="translate(47.452 99.294)"><path d="M48.772,92.6a1.838,1.838,0,0,1,1.136,2.272q.155,3.745-2.272,1.136A6.335,6.335,0,0,0,46.5,92.6Q47.3,90.957,48.772,92.6Z" transform="translate(-46.5 -91.778)" fill-rule="evenodd"/></g><g transform="translate(56.533 100.115)"><path d="M56.773,92.5A3.1,3.1,0,0,1,54.5,95.908,3.1,3.1,0,0,1,56.773,92.5Z" transform="translate(-54.495 -92.5)" fill-rule="evenodd" opacity="0.329"/></g><g transform="translate(88.347 100.115)"><path d="M89.316,92.5a1.838,1.838,0,0,1,1.136,2.272,20.272,20.272,0,0,1-5.68,5.68A5.4,5.4,0,0,0,82.5,97.044Q85.938,94.728,89.316,92.5Z" transform="translate(-82.5 -92.5)" fill-rule="evenodd"/></g><g transform="translate(123.562 105.769)"><path d="M113.5,98.639a19.781,19.781,0,0,1,6.816-1.136,18.806,18.806,0,0,1,10.224,2.272,87.666,87.666,0,0,0-14.768-1.136Z" transform="translate(-113.5 -97.477)" fill-rule="evenodd" opacity="0.02"/></g><g transform="translate(48.588 97.843)"><path d="M60,95.044q-5.8,14.645-12.5,1.136,2.427,2.609,2.272-1.136,2.445,3.239,5.68,1.136a3.1,3.1,0,0,0,2.272-3.408,3.755,3.755,0,0,0,1.7-2.272A9.581,9.581,0,0,1,60,95.044Z" transform="translate(-47.5 -90.5)" fill-rule="evenodd" opacity="0.886"/></g><g transform="translate(125.833 106.928)"><path d="M115.5,98.5a87.667,87.667,0,0,1,14.768,1.136v2.272H126.86a3.254,3.254,0,0,0-3.408-1.136h-1.136Z" transform="translate(-115.5 -98.498)" fill-rule="evenodd"/></g><g transform="translate(86.075 106.931)"><path d="M80.5,98.5a7.856,7.856,0,0,0,4.544,1.136Q81.768,104.267,80.5,98.5Z" transform="translate(-80.5 -98.5)" fill-rule="evenodd" opacity="0.669"/></g><g transform="translate(119.018 106.924)"><path d="M112.908,98.5a3.1,3.1,0,0,1-3.408,2.272A3.1,3.1,0,0,1,112.908,98.5Z" transform="translate(-109.5 -98.495)" fill-rule="evenodd" opacity="0.631"/></g><g transform="translate(121.29 109.133)"><path d="M122.86,100.508H124v1.136a3.254,3.254,0,0,0-3.408,1.136v1.136h-2.272a10.886,10.886,0,0,0-2.84-2.272,4.986,4.986,0,0,1-3.976,1.136,3.753,3.753,0,0,1,2.272-1.7A36.876,36.876,0,0,1,122.86,100.508Z" transform="translate(-111.5 -100.439)" fill-rule="evenodd" opacity="0.007"/></g><g transform="translate(116.746 106.931)"><path d="M113.18,98.5h3.408l6.816,2.272a36.876,36.876,0,0,0-9.088.568,3.753,3.753,0,0,0-2.272,1.7l-2.272,1.136a2.758,2.758,0,0,1-2.272-.568,8.017,8.017,0,0,0,2.272-2.84A3.1,3.1,0,0,0,113.18,98.5Z" transform="translate(-107.5 -98.5)" fill-rule="evenodd"/></g><g transform="translate(130.377 109.119)"><path d="M122.908,101.646V100.51a3.254,3.254,0,0,1,3.408,1.136h3.408v1.136a1,1,0,0,0-1.136,1.136H119.5v-1.136Q122.99,103.361,122.908,101.646Z" transform="translate(-119.5 -100.426)" fill-rule="evenodd" opacity="0.024"/></g><g transform="translate(140.601 108.067)"><path d="M128.5,99.5a22.771,22.771,0,0,1,10.224,5.68,1.838,1.838,0,0,0-2.272,1.136l-2.272-1.136a6.6,6.6,0,0,0-4.544-2.272H128.5V99.5Z" transform="translate(-128.5 -99.5)" fill-rule="evenodd"/></g><g transform="translate(111.066 109.203)"><path d="M110.452,100.5a8.017,8.017,0,0,1-2.272,2.84,2.758,2.758,0,0,0,2.272.568v1.136a1,1,0,0,0-1.136,1.136H108.18l-2.272,1.136a1.038,1.038,0,0,0-.568-1.136,8.017,8.017,0,0,1-2.84,2.272A13.722,13.722,0,0,1,110.452,100.5Z" transform="translate(-102.5 -100.5)" fill-rule="evenodd"/></g><g transform="translate(121.29 112.509)"><path d="M118.316,103.512h10.224l-10.224,2.272a7.86,7.86,0,0,1-4.544,1.136H111.5l2.272-2.272A5.24,5.24,0,0,1,118.316,103.512Z" transform="translate(-111.5 -103.41)" fill-rule="evenodd" opacity="0.725"/></g><g transform="translate(128.105 111.474)"><path d="M131.132,102.5a6.6,6.6,0,0,1,4.544,2.272q-3.745-.155-1.136,2.272v2.272a27,27,0,0,0-17.039-3.408l10.224-2.272h1.136A1.838,1.838,0,0,0,131.132,102.5Z" transform="translate(-117.5 -102.5)" fill-rule="evenodd" opacity="0.427"/></g><g transform="translate(148.553 113.697)"><path d="M135.5,105.642a1.838,1.838,0,0,1,2.272-1.136,3.1,3.1,0,0,0,3.408,2.272,8.56,8.56,0,0,0,4.544,5.68,2.008,2.008,0,0,1-2.272,2.272q-2.22-2.8-4.544-5.68A7.437,7.437,0,0,0,135.5,105.642Z" transform="translate(-135.5 -104.456)" fill-rule="evenodd"/></g><g transform="translate(150.825 113.74)"><path d="M137.5,104.5a3.1,3.1,0,0,1,3.408,2.272A3.1,3.1,0,0,1,137.5,104.5Z" transform="translate(-137.5 -104.495)" fill-rule="evenodd" opacity="0.008"/></g><g transform="translate(113.338 113.746)"><path d="M110.18,104.5h4.544l-2.272,2.272q-3.379,1.655-6.816,3.408a1,1,0,0,0-1.136-1.136q.567-1.137,1.136-2.272l2.272-1.136q.567,2.271,1.136,0A1,1,0,0,0,110.18,104.5Z" transform="translate(-104.5 -104.5)" fill-rule="evenodd" opacity="0.011"/></g><g transform="translate(145.145 113.746)"><path d="M133.636,104.5l2.272,1.136a7.437,7.437,0,0,1,3.408,3.408,2.758,2.758,0,0,0-2.272.568,3.122,3.122,0,0,1,.568,3.976,28.558,28.558,0,0,0-5.112-4.544v-2.272A1.838,1.838,0,0,0,133.636,104.5Z" transform="translate(-132.5 -104.5)" fill-rule="evenodd" opacity="0.49"/></g><g transform="translate(154.233 116.018)"><path d="M140.5,106.5a8.56,8.56,0,0,1,4.544,5.68A8.56,8.56,0,0,1,140.5,106.5Z" transform="translate(-140.5 -106.5)" fill-rule="evenodd" opacity="0.694"/></g><g transform="translate(107.652 118.29)"><path d="M101.773,108.5a3.1,3.1,0,0,1-2.272,3.408A3.1,3.1,0,0,1,101.773,108.5Z" transform="translate(-99.495 -108.5)" fill-rule="evenodd" opacity="0.518"/></g><g transform="translate(113.515 116.018)"><path d="M112.431,106.5H114.7a38.987,38.987,0,0,0-9.088,6.816q-1.917-1.445,0-3.408Q109.052,108.155,112.431,106.5Z" transform="translate(-104.656 -106.5)" fill-rule="evenodd" opacity="0.8"/></g><g transform="translate(107.608 114.882)"><path d="M106.322,106.636q-.567,1.137-1.136,2.272a8.029,8.029,0,0,0-2.272,3.408,3.412,3.412,0,0,0-2.272,2.272,1.838,1.838,0,0,1-1.136-2.272,3.1,3.1,0,0,0,2.272-3.408,1,1,0,0,1,1.136-1.136,8.017,8.017,0,0,0,2.84-2.272A1.038,1.038,0,0,1,106.322,106.636Z" transform="translate(-99.456 -105.5)" fill-rule="evenodd" opacity="0.996"/></g><g transform="translate(156.505 121.698)"><path d="M144.772,111.5a7.5,7.5,0,0,1,3.408,5.68q.629,4.248-2.272,2.272a21.1,21.1,0,0,1-3.408-5.68A2.008,2.008,0,0,0,144.772,111.5Z" transform="translate(-142.5 -111.5)" fill-rule="evenodd"/></g><g transform="translate(107.658 118.29)"><path d="M105.18,108.5a1,1,0,0,1,1.136,1.136q-1.917,1.963,0,3.408a8.029,8.029,0,0,1-2.272,3.408,2.758,2.758,0,0,0-.568-2.272q-1.452,1.825-2.84,3.408H99.5a6.506,6.506,0,0,1,1.136-3.408,3.412,3.412,0,0,1,2.272-2.272A8.029,8.029,0,0,1,105.18,108.5Z" transform="translate(-99.5 -108.5)" fill-rule="evenodd" opacity="0.067"/></g><g transform="translate(101.978 121.698)"><path d="M100.18,111.5a1.838,1.838,0,0,0,1.136,2.272,6.506,6.506,0,0,0-1.136,3.408,1.838,1.838,0,0,0-1.136,2.272,12.884,12.884,0,0,1-2.272,5.68q-1.471,1.641-2.272,0a10.345,10.345,0,0,0,1.136-5.68A14.025,14.025,0,0,1,100.18,111.5Z" transform="translate(-94.5 -111.5)" fill-rule="evenodd"/></g><g transform="translate(106.472 123.97)"><path d="M104.186,115.772q-2.559,5.12-5.112,10.224a14.971,14.971,0,0,0-.568-6.816,1.838,1.838,0,0,1,1.136-2.272q.568,2.271,1.136,0,1.389-1.583,2.84-3.408A2.758,2.758,0,0,1,104.186,115.772Z" transform="translate(-98.456 -113.5)" fill-rule="evenodd" opacity="0.427"/></g><g transform="translate(159.912 127.378)"><path d="M147.772,116.5a8.092,8.092,0,0,1,2.272,6.816q-2.5-4.7-2.272,1.136a12.892,12.892,0,0,1-2.272-5.68Q148.4,120.749,147.772,116.5Z" transform="translate(-145.5 -116.5)" fill-rule="evenodd" opacity="0.955"/></g><g transform="translate(162.117 132.097)"><path d="M149.78,122.751a41.615,41.615,0,0,1,0,19.311,3.753,3.753,0,0,0-1.7,2.272,14.688,14.688,0,0,1-.568-5.68V123.887Q147.281,118.051,149.78,122.751Z" transform="translate(-147.441 -120.654)" fill-rule="evenodd"/></g><g transform="translate(99.706 129.65)"><path d="M95.908,118.5a10.345,10.345,0,0,1-1.136,5.68q.8,1.641,2.272,0A47.183,47.183,0,0,1,94.772,134.4a28.33,28.33,0,0,0-.568-7.952,6.3,6.3,0,0,1-1.7,3.408A24.972,24.972,0,0,1,95.908,118.5Z" transform="translate(-92.5 -118.5)" fill-rule="evenodd" opacity="0.976"/></g><g transform="translate(123.512 141.03)"><path d="M124.866,129.633a1.838,1.838,0,0,0-2.272,1.136,11,11,0,0,0-6.816,9.088,3.753,3.753,0,0,0-1.7,2.272,2.758,2.758,0,0,1-.568-2.272,16.829,16.829,0,0,1,5.68-10.792A5.365,5.365,0,0,1,124.866,129.633Z" transform="translate(-113.457 -128.518)" fill-rule="evenodd" opacity="0.588"/></g><g transform="translate(98.61 137.602)"><path d="M94.9,133.452V138a14.833,14.833,0,0,1-1.7-5.68,36.849,36.849,0,0,0-.568,9.088,18.35,18.35,0,0,1,0-12.5,6.3,6.3,0,0,0,1.7-3.408A28.329,28.329,0,0,1,94.9,133.452Z" transform="translate(-91.535 -125.5)" fill-rule="evenodd" opacity="0.886"/></g><g transform="translate(132.649 142.096)"><path d="M121.5,130.642a1.838,1.838,0,0,1,2.272-1.136,20.506,20.506,0,0,1,6.816,12.5q-.528,2.11-1.7,0a10.871,10.871,0,0,0-2.84-5.68,1.838,1.838,0,0,0-1.136,2.272h-1.136q-.567-2.271-1.136-4.544,2.271-1.137,0-2.272A1,1,0,0,0,121.5,130.642Z" transform="translate(-121.5 -129.456)" fill-rule="evenodd" opacity="0.722"/></g><g transform="translate(125.833 143.282)"><path d="M122.316,130.5a1,1,0,0,1,1.136,1.136v2.272q-2.377-2.241-3.408,1.136-1.683,2.207-3.408,4.544H115.5A11,11,0,0,1,122.316,130.5Z" transform="translate(-115.5 -130.5)" fill-rule="evenodd" opacity="0.01"/></g><g transform="translate(125.827 147.825)"><path d="M120.045,134.5a1.838,1.838,0,0,1,1.136,2.272,21.1,21.1,0,0,0-3.408,5.68q-3.89.981-1.136-3.408Q118.361,136.706,120.045,134.5Z" transform="translate(-115.495 -134.5)" fill-rule="evenodd"/></g><g transform="translate(130.377 145.796)"><path d="M122.908,133.607q.567,2.271,1.136,4.544a3.254,3.254,0,0,1-1.136,3.408,6.505,6.505,0,0,1-1.136-3.408,1,1,0,0,0-1.136-1.136,1.838,1.838,0,0,0-1.136-2.272Q120.531,131.367,122.908,133.607Z" transform="translate(-119.5 -132.713)" fill-rule="evenodd"/></g><g transform="translate(99.588 144.417)"><path d="M94.786,137.18a14.6,14.6,0,0,1,1.136,7.952q.629,4.248-2.272,2.272a10.914,10.914,0,0,1-1.136-6.816,36.849,36.849,0,0,1,.568-9.088A14.833,14.833,0,0,0,94.786,137.18Z" transform="translate(-92.396 -131.5)" fill-rule="evenodd" opacity="0.957"/></g><g transform="translate(128.105 150.097)"><path d="M120.908,136.5a1,1,0,0,1,1.136,1.136,9.75,9.75,0,0,1-4.544,4.544A21.1,21.1,0,0,1,120.908,136.5Z" transform="translate(-117.5 -136.5)" fill-rule="evenodd" opacity="0.008"/></g><g transform="translate(136.057 148.961)"><path d="M125.636,135.5a10.871,10.871,0,0,1,2.84,5.68q1.176,2.11,1.7,0,1.828,1.28.568,3.408-1.975-1.816-2.84,1.136-1.69-3.333-3.408-6.816A3.254,3.254,0,0,0,125.636,135.5Z" transform="translate(-124.5 -135.5)" fill-rule="evenodd" opacity="0.006"/></g><g transform="translate(159.8 150.097)"><path d="M147.785,136.5a14.688,14.688,0,0,0,.568,5.68,3.753,3.753,0,0,1,1.7-2.272,12.235,12.235,0,0,1-2.272,6.816q-2.9,1.977-2.272-2.272A36.036,36.036,0,0,1,147.785,136.5Z" transform="translate(-145.401 -136.5)" fill-rule="evenodd"/></g><g transform="translate(133.785 151.233)"><path d="M123.636,137.5h1.136v1.136q1.718,3.483,3.408,6.816a1.838,1.838,0,0,1,1.136,2.272A3.412,3.412,0,0,1,127.044,150a68.032,68.032,0,0,1-4.544-9.088A3.254,3.254,0,0,0,123.636,137.5Z" transform="translate(-122.5 -137.5)" fill-rule="evenodd"/></g><g transform="translate(120.154 152.369)"><path d="M113.908,138.5a2.758,2.758,0,0,0,.568,2.272,3.753,3.753,0,0,1,1.7-2.272h1.136q-2.755,4.389,1.136,3.408a14.522,14.522,0,0,1-3.408,6.816,5.6,5.6,0,0,0-.568-3.408q-2.026,2.953-3.976,5.68A28.528,28.528,0,0,1,113.908,138.5Z" transform="translate(-110.5 -138.5)" fill-rule="evenodd" opacity="0.467"/></g><g transform="translate(120.042 159.185)"><path d="M115.057,147.908a6.6,6.6,0,0,1-2.272,4.544q-2.9,1.977-2.272-2.272,1.949-2.726,3.976-5.68A5.6,5.6,0,0,1,115.057,147.908Z" transform="translate(-110.401 -144.5)" fill-rule="evenodd"/></g><g transform="translate(100.842 158.049)"><path d="M95.772,143.5a42.146,42.146,0,0,1,4.544,10.224q-2.9-1.977-2.272,2.272A42.147,42.147,0,0,1,93.5,145.772Q96.4,147.749,95.772,143.5Z" transform="translate(-93.5 -143.5)" fill-rule="evenodd" opacity="0.994"/></g><g transform="translate(138.329 161.457)"><path d="M128.772,146.5a25.659,25.659,0,0,1,4.544,9.088v1.136A1.838,1.838,0,0,0,132.18,159a66.886,66.886,0,0,1-5.68-10.224A3.412,3.412,0,0,0,128.772,146.5Z" transform="translate(-126.5 -146.5)" fill-rule="evenodd"/></g><g transform="translate(148.553 158.049)"><path d="M146.86,143.5q-.629,4.248,2.272,2.272a21.881,21.881,0,0,1-6.816,11.36,2.758,2.758,0,0,0-.568-2.272A12.226,12.226,0,0,1,135.5,159.4,47.785,47.785,0,0,0,146.86,143.5Z" transform="translate(-135.5 -143.5)" fill-rule="evenodd"/></g><g transform="translate(117.882 164.865)"><path d="M110.772,149.5q-.629,4.248,2.272,2.272a7.5,7.5,0,0,1-3.408,5.68,3.254,3.254,0,0,0-1.136-3.408A6.6,6.6,0,0,1,110.772,149.5Z" transform="translate(-108.5 -149.5)" fill-rule="evenodd"/></g><g transform="translate(107.652 168.273)"><path d="M99.5,152.5a3.1,3.1,0,0,1,2.272,3.408A3.1,3.1,0,0,1,99.5,152.5Z" transform="translate(-99.495 -152.5)" fill-rule="evenodd" opacity="0.255"/></g><g transform="translate(109.93 169.409)"><path d="M109.452,153.5a3.254,3.254,0,0,1,1.136,3.408,8.82,8.82,0,0,1-4.544,5.68,5.6,5.6,0,0,0-.568-3.408q-3.416.906-3.976-3.408,1.673,1.092,3.408,2.272A13.055,13.055,0,0,1,109.452,153.5Z" transform="translate(-101.5 -153.5)" fill-rule="evenodd"/></g><g transform="translate(145.145 170.545)"><path d="M132.5,154.5a11.547,11.547,0,0,1,3.408,3.408q-2.6,1.515-3.408-2.272Z" transform="translate(-132.5 -154.5)" fill-rule="evenodd" opacity="0.141"/></g><g transform="translate(143.959 169.409)"><path d="M142.866,155.772a28.537,28.537,0,0,1-8.52,7.952,5.561,5.561,0,0,1-2.84-5.68,1.838,1.838,0,0,1,1.136-2.272q.809,3.786,3.408,2.272A12.226,12.226,0,0,0,142.3,153.5,2.758,2.758,0,0,1,142.866,155.772Z" transform="translate(-131.456 -153.5)" fill-rule="evenodd"/></g><g transform="translate(105.274 167.645)"><path d="M99.785,152.575a3.1,3.1,0,0,0,2.272,3.408q.561,4.314,3.976,3.408a5.6,5.6,0,0,1,.568,3.408q-1.658,2.2-3.408,0a28.954,28.954,0,0,1-5.68-7.952Q96.884,150.6,99.785,152.575Z" transform="translate(-97.401 -151.948)" fill-rule="evenodd"/></g></g></svg>