<svg xmlns="http://www.w3.org/2000/svg" width="124.126" height="202.865" viewBox="0 0 124.126 202.865"><g transform="translate(-102 -531)"><g transform="translate(159 565)" fill="#6f777b" stroke="#6f777b" stroke-width="0.5"><rect width="5" height="165" stroke="none"/><rect x="0.25" y="0.25" width="4.5" height="164.5" fill="none"/></g><g transform="translate(57.892 917.771)"><path d="M165.628-387.009c-3.114,2.669-.945,8.23,4.949,12.79,5.561,4.282,8.4,5.394,14.236,5.561,4.56.111,5.617.334,8.62,1.835,4.338,2.169,10.9,7.563,13.18,10.9a22.749,22.749,0,0,1,4.171,13.346c.056,9.676-5.172,15.46-23.189,25.636-7.341,4.171-12.79,6.4-23.078,9.4-4.838,1.39-9.176,2.669-9.621,2.836-.5.222.445.779,2.5,1.557a44.958,44.958,0,0,1,5.505,2.391l2.169,1.112,3.948-1.5c2.169-.834,6.84-2.558,10.4-3.837,12.067-4.226,22.3-9.621,28.083-14.737,8.62-7.563,12.067-20.02,8.4-29.918-3.114-8.508-8.286-14.681-15.682-18.741-6.9-3.726-9.9-6.284-11.9-10.065-2.058-3.782-3-4.449-11.066-7.174C170.41-387.954,167.24-388.343,165.628-387.009Z" transform="translate(-49.12 1)"/><path d="M86.868-385.086c-1.668.445-5.45,1.724-8.342,2.892-5.172,2.058-5.283,2.169-6.784,5.116-2.058,4.06-2.836,4.783-7.4,7.007-8.4,4-13.847,9.287-17.295,16.683a31.516,31.516,0,0,0-2.892,15.738,17.819,17.819,0,0,0,2.224,9.064c5.061,10.677,18.8,20.186,40.484,28.027,10.622,3.837,16.627,6.451,20.02,8.731,1.057.723,3.448,2.224,5.283,3.337,4.449,2.725,6.562,5,8.564,9.342,3.615,7.73,3.559,15.849-.167,21.465-2.781,4.171-13.736,15.07-16.016,15.96-1,.334-5.672-3.114-6.84-5-.278-.556-2.058-3-3.893-5.505-4.838-6.4-6.006-9.4-6.284-15.682-.389-8.62,2.614-15.849,8.175-19.853a11.021,11.021,0,0,0,3.059-2.836,4.593,4.593,0,0,1,2.113-1.613l1.835-.723L99.1-294.664c-5.95-2.836-6.9-2.836-9.787,0-10.177,10.01-12.957,25.025-6.84,37.092,2.391,4.838,4.616,7.674,11.623,14.959,5.505,5.672,5.45,5.116.723,8.119-5.895,3.781-18.351,15.46-20.353,19.185-4.171,7.73-3.615,17.072,1.39,23.134,1.668,2.058,7.785,6.451,8.953,6.451.278,0-.445-1.057-1.668-2.391a31.238,31.238,0,0,1-4.06-6.173c-2.5-5-2.669-10.288-.556-14.459,2.5-4.949,10.065-12.179,20.687-19.853,6.173-4.5,4.727-4.782,15.015,2.947,14.9,11.233,17.962,15.015,17.906,22.133,0,4.226-1.557,8.23-5.895,15.46-1.557,2.558-2.614,4.782-2.391,5,.167.222,2.78-2.169,5.783-5.283,8.119-8.342,10.177-13.458,8.175-20.52-1.946-6.784-7.174-12.568-19.742-21.8l-7.952-5.895,2.947-2.5c8.119-6.9,11.122-10.232,13.624-15.348,3.114-6.34,4.115-10.4,4.115-16.4,0-8.953-2.781-15.571-9.176-21.966-5.283-5.339-10.343-7.785-23.467-11.4-16.683-4.56-22.077-6.9-32.977-14.181-13.124-8.786-17.684-15.96-16.127-25.3,1.279-7.563,5-12.9,13.013-18.574,4.949-3.559,6.784-4.226,11.956-4.226,5.617,0,9.064-1.223,14.236-5.116,4.393-3.337,6.84-6.506,7.285-9.454a3.121,3.121,0,0,0-1.057-3.448C92.873-386.087,91.483-386.2,86.868-385.086Z" transform="translate(0 -0.866)"/></g><path d="M3097.912,612.381c1.516.505,5.733,1.631,10.092,3.4s2.987,1.1,7.346,3.673" transform="translate(-2940)" fill="none" stroke="#fff" stroke-width="1.7"/><path d="M3097.935,612.079a98.991,98.991,0,0,1,9.659,4.037,57.738,57.738,0,0,1,7.32,4.306" transform="translate(-2948 7.072)" fill="#a21818" stroke="#fff" stroke-width="1.7"/></g></svg>