<svg xmlns="http://www.w3.org/2000/svg" width="124.597" height="143.209" viewBox="0 0 124.597 143.209"><g transform="translate(0)"><path d="M53.2-399.755c.245.2,16.408,11.252,34.37,23.486,11.211,7.611,15.63,11.5,20.7,18.208a37.3,37.3,0,0,1,7.9,19.64c.777,6.3,2.578,9.7,6.383,11.948,1.514.9,2.537,1.146,5.319,1.268l3.4.2-1.759,1.1a13.167,13.167,0,0,0-6.015,10.966,9.7,9.7,0,0,0,.532,3.355c.327.573.737,1.391.982,1.841a54.711,54.711,0,0,1,1.759,5.319c.737,2.455,1.759,5.933,2.291,7.651,1.146,3.846,1.6,8.02,2.782,24.755L132.7-257l5.647.123c4.869.082,5.606.041,5.606-.532,0-.368-.286-6.138-.614-12.807-.818-17.185-.982-23.609-.614-24.223.491-.777,2.291,5.2,3.273,10.761.818,4.665,2.987,19.681,3.519,24.3l.286,2.578h25.246v-14.116c0-7.774.245-17.308.491-21.195.941-13.134.532-21.6-1.187-25.041-1.023-2-6.056-8.142-8.674-10.557-2.782-2.537-5.2-3.846-7.856-4.214-2.332-.327-7.774.368-12.725,1.637-2.087.532-3.846.941-3.887.9s1.432-1.146,3.232-2.5a30.864,30.864,0,0,0,10.393-12.275c2.864-5.81,3.764-10.106,3.069-14.239-.982-5.892-3.519-8.552-12.234-12.93-1.882-.941-5.728-3.151-8.593-4.91-5.851-3.6-32.9-20.786-35.557-22.586L99.8-400H76.4C63.51-400,53.076-399.918,53.2-399.755Z" transform="translate(-53.197 400)"/><path d="M318.108-323.964c-1.35,1.35-1.391,2.823-.041,10.311,1.637,9.534,3.846,16.98,5.565,19.19s4.91.941,7.12-2.782c4.787-8.142,3.6-19.395-2.5-24.1a20.171,20.171,0,0,0-7.815-3.437A2.232,2.232,0,0,0,318.108-323.964Z" transform="translate(-209.104 355.593)"/></g></svg>